<?xml version="1.0" encoding="UTF-8"?>
<svg id="Capa_2" data-name="Capa 2" xmlns="http://www.w3.org/2000/svg" viewBox="0 0 644.76 644.76">
  <defs>
    <style>
      .cls-1 {
        fill: #113f30;
      }

      .cls-2 {
        fill: #fff;
      }
    </style>
  </defs>
  <g id="Capa_1-2" data-name="Capa 1">
    <circle class="cls-1" cx="322.38" cy="322.38" r="322.38"/>
    <g>
      <g>
        <g>
          <path class="cls-2" d="M387.02,117.88c3.21,1.61,6.63,1.74,10.12,3.05,19.47,7.34,26.59,30,39.09,44.74l30.43-14.1c7.27.25,10.78,6.46,8.23,13.05l-42.96,102.36c-2.95,4.39-5.03,4.45-10.07,4.09-27.97-5.88-56.55-9.32-84.49-15.32-7.34-1.58-18.04-2.55-14.66-13.37,1.76-5.64,23.41-13.61,29.18-16.73l-18.36-27.14-2.15-.35-17.57-27.12c-13.37-21.46-27.2-37.25-54.68-34.46l-27.64.53c-1.8-.1-2.63-.65-1.75-2.48,6.75-6.91,13.43-11.23,22.73-14.4l9.21-2.37h125.36Z"/>
          <path class="cls-2" d="M333.53,198.52c-1.28.47-1.83,1.58-2.58,2.61-10.51,14.46-23.46,36.43-34.98,48.86-5.81,6.28-8.2,5.07-15.16,1.64-31.19-15.35-61.81-34.86-92.61-51.11-2.33-3.02-3.45-6.59-1.22-10.02,14.52-17.5,26.98-39.73,42.75-55.86.83,1.32,3.03.8,4.38.81,16.43.17,40.81-2.95,54.95,4.93,14.27,7.95,34.44,43.28,44.47,58.13Z"/>
        </g>
        <g>
          <path class="cls-2" d="M525.95,347.03c3.27,17.42-3.18,22.32-11.84,34.87-20.65,29.91-40.89,60.11-62,89.7-16.11,18.62-37.22,22.89-61.09,21.55v25.15c0,6.63-8.67,11.31-13.97,6.79-20.99-23.87-43.42-46.75-63.89-71.05-6.2-7.36-10.98-9.86-5.03-19.42,19.55-31.39,47.08-61.06,67.29-92.4,4.92-6.28,15.6-2.13,15.6,5.22v25.95c11.7.02,23.43-.03,35.13,0l1.76-1.06c21.98.51,43.92.19,65.83-.95,9.29-4.37,17.36-11,24.21-19.88,2.63-3.39,5.3-4.88,8-4.46Z"/>
          <path class="cls-2" d="M525.95,347.03c-11.53,7.21-20.43,25.15-34.7,26.38-19.76,1.7-44.76.03-65.1-.03-11.94-19.33-24.72-38.25-35.78-58.09-.75-3.83,2.21-7.56,5.17-9.65,23.91-11.88,46.95-27.69,70.79-39.39,7.44-3.65,12.77-6.96,17.95,2.29,11.35,22.45,26.12,44.08,37.3,66.5,2.36,4.73,3.38,6.7,4.37,11.99Z"/>
        </g>
      </g>
      <g>
        <path class="cls-2" d="M117.95,242.44c2.48-3.42,4.77-5.21,9.14-5.63,34.54-3.32,74.36,2.6,109.46,0,4.49-.09,7.68,2.67,9.3,6.67,11.86,32.37,28.48,64.1,40.15,96.39,2.1,5.81,4.79,14.87-4.16,16.57-7.19,1.36-30.55-15.01-32.87-13.35l-14.44,30.29c-2.13.41-4.26.78-6.4,1.05s-4.27.51-6.4.53c-24,.23-48.11.25-72.02-.47-9.75-4.85-18.29-11.92-25.63-21.2-2.97-1.88-4.75-3.97-5.33-6.25-.34-2.6-.13-5.29.62-8.05l28.42-57.44-28.47-29.05-1.36-3.67v-6.39Z"/>
        <path class="cls-2" d="M234.52,373.38c13.59.05,34.13-1.74,46.74-.04,5.43.73,7.17,6.06,7.58,10.79,2.7,31.62-2.07,67.02-.03,99.04-.56,4.21-2.06,7.46-6.2,8.97-5.87,2.14-35.07,1.47-42.94,1.04-21.76-1.19-36.35-8.3-49.72-25.33-22.01-28.04-39.87-62.35-62.42-89.68l-3.99-5.59c-3.12-4.18-3.86-7.12-5.59-11.98v-12.78c.12-.68.39-.95.8-.8,9.95,5.79,21.04,24.49,32.54,26.14,27.73.46,55.5.11,83.23.21Z"/>
        <path class="cls-2" d="M127.53,378.17c-1.28-1.55-3.83-2.86-3.99-5.59,1.08,1.45,3.93,2.9,3.99,5.59Z"/>
      </g>
    </g>
  </g>
</svg>