<?xml version="1.0" encoding="UTF-8"?>
<svg id="Capa_2" data-name="Capa 2" xmlns="http://www.w3.org/2000/svg" viewBox="0 0 644.76 644.76">
  <defs>
    <style>
      .cls-1 {
        fill: #113f30;
      }

      .cls-2 {
        fill: #fff;
      }
    </style>
  </defs>
  <g id="Capa_1-2" data-name="Capa 1">
    <circle class="cls-1" cx="322.38" cy="322.38" r="322.38"/>
    <path class="cls-2" d="M389.08,227.49c-5.8,10.49-10.39,21.68-16.11,32.23-28.67,52.88-70.84,100.54-116.94,138.85-23.41,19.45-38.54,28.44-56.71,54.5-1.16,1.67-4.08,7.7-4.45,7.97-1.62,1.19-6.41-7.83-7.28-9.39-10.95-19.76-19.35-49.11-21.69-71.56-11.4-109.38,70.84-177.34,161.6-216.3,37.69-16.18,60.51-23.62,93.23-50.49,1.89-1.55,9.71-9.43,10.71-9.83,1.46-.59,1.15.6,1.48,1.06,27.71,38.78,45.47,104.24,46.87,151.58,3.57,120.56-85.2,220.99-208.26,218.53l-31.3-2.1c-11.99,17.62-17.61,38.59-21.59,59.31-8.97,2.6-17.86,5.66-26.33,9.6h-1.71c5.67-30.54,13.94-62.31,30.44-88.9,14.33-23.09,32.93-32.08,52.55-49.25,41.4-36.24,76.78-86.33,99.96-136.15,5.67-12.18,12.18-26.71,15.52-39.66q1.37-3.37,0,0Z"/>
  </g>
</svg>