<?xml version="1.0" encoding="UTF-8"?>
<svg id="Capa_2" data-name="Capa 2" xmlns="http://www.w3.org/2000/svg" viewBox="0 0 644.76 644.76">
  <defs>
    <style>
      .cls-1 {
        fill: #113f30;
      }

      .cls-2 {
        fill: #fff;
      }
    </style>
  </defs>
  <g id="Capa_1-2" data-name="Capa 1">
    <circle class="cls-1" cx="322.38" cy="322.38" r="322.38"/>
    <g>
      <path class="cls-2" d="M418.45,526.85h-12.78c-16.99-3.86-30.16-17-31.97-34.7,5.06-71.13,13.26-142.1,19.2-213.21.28-3.37.84-7.46,1.59-10.75-46-16.93-58.52-78.28-34.67-118.14,25.55-42.69,78.87-42.76,104.47,0,24.28,40.56,10.78,103.76-37.07,119.29l-.83,1.63,23.99,211.58c2.48,21.51-11.17,39.7-31.93,44.31Z"/>
      <path class="cls-2" d="M226.83,526.85c-16.54-3.77-29.29-16.17-31.85-33.22,3.64-61.53,11.06-122.94,16.68-184.36,1.24-13.52,2.36-27.08,3.25-40.63-23.95-7.36-43.63-29.64-45.59-55.15-2.11-27.47,1.59-57.65.08-85.41,3.65-14.27,24.13-13.03,25.54,1.51,1.99,20.52-2.39,45.13.05,65.42,1.96,16.28,23.42,16.28,25.37,0l.46-68.2c4.35-12.84,23.63-11.04,25.19,2,2.46,20.44-2.79,46.65.19,66.88,2.29,15.57,23.32,15.38,25.25-.68,2.52-20.98-1.85-46.17.27-67.6,4.73-12.98,21.32-12.56,25.32.67-4.23,50.82,18.59,116.9-42.86,139.88-2.1.79-6.49.96-6.67,2.98l24.02,211.6c2.48,21.5-11.16,39.7-31.93,44.31h-12.78Z"/>
    </g>
  </g>
</svg>