<?xml version="1.0" encoding="UTF-8"?>
<svg id="Capa_2" data-name="Capa 2" xmlns="http://www.w3.org/2000/svg" viewBox="0 0 3299.95 823">
  <defs>
    <style>
      .cls-1 {
        fill: #fff;
      }

      .cls-2 {
        fill: red;
      }
    </style>
  </defs>
  <g id="Capa_1-2" data-name="Capa 1">
    <g>
      <path class="cls-1" d="M3109.97,762H638V62s2471.97,0,2471.97,0c102.99,0,186.49,83.49,186.49,186.49-14.26,163.4,74.28,508.6-186.49,513.51Z"/>
      <rect class="cls-2" width="873" height="823" rx="105.27" ry="105.27"/>
      <path class="cls-1" d="M492.37,611.36h-112.59v-166.26h-167.14v-114.33h167.14v-167.14h112.59v167.14h168.01v114.33h-168.01v166.26Z"/>
      <g>
        <g>
          <path d="M987.35,451.47v-187.4h25.38v187.4h-25.38Z"/>
          <path d="M1057.02,451.47v-187.4h17.82l7.56,29.7v157.7h-25.38ZM1186.63,451.47l-115.03-153.38,3.24-34.02,115.3,153.38-3.51,34.02ZM1186.63,451.47l-7.56-27.81v-159.59h25.38v187.4h-17.82Z"/>
          <path d="M1333.26,454.17c-12.96,0-25.16-2.48-36.59-7.43-11.43-4.95-21.43-11.83-29.97-20.66-8.55-8.82-15.26-19.08-20.12-30.78-4.86-11.7-7.29-24.3-7.29-37.8s2.43-26.06,7.29-37.67c4.86-11.61,11.61-21.83,20.25-30.65,8.64-8.82,18.77-15.66,30.38-20.52,11.61-4.86,24.26-7.29,37.94-7.29,14.94,0,28.71,2.88,41.31,8.64,12.6,5.76,23.13,14.04,31.59,24.84l-17.55,17.55c-5.94-8.64-13.77-15.26-23.49-19.85-9.72-4.59-20.34-6.89-31.86-6.89-13.68,0-25.79,3.06-36.32,9.18-10.53,6.12-18.72,14.58-24.57,25.38-5.85,10.8-8.78,23.22-8.78,37.26s2.97,26.73,8.91,37.53c5.94,10.8,13.95,19.26,24.03,25.38,10.08,6.12,21.51,9.18,34.29,9.18s24.8-2.52,34.43-7.56c9.63-5.04,17.01-12.46,22.14-22.28,5.13-9.81,7.78-21.83,7.97-36.05l15.39,11.34h-81.01v-23.49h91.81v3.78c0,21.78-3.83,40.01-11.48,54.68-7.65,14.67-18.27,25.7-31.86,33.08-13.59,7.38-29.21,11.07-46.85,11.07Z"/>
          <path d="M1457.2,451.47v-187.4h25.38v187.4h-25.38ZM1474.48,287.29v-23.22h106.12v23.22h-106.12ZM1474.48,366.95v-22.41h98.56v22.41h-98.56ZM1474.48,451.47v-23.22h107.47v23.22h-107.47Z"/>
          <path d="M1616.51,451.47v-187.4h17.82l7.56,29.7v157.7h-25.38ZM1746.12,451.47l-115.03-153.38,3.24-34.02,115.3,153.38-3.51,34.02ZM1746.12,451.47l-7.56-27.81v-159.59h25.38v187.4h-17.82Z"/>
          <path d="M1808.23,451.47v-187.4h25.38v187.4h-25.38Z"/>
          <path d="M1877.89,451.47v-187.4h25.38v187.4h-25.38ZM1895.18,287.29v-23.22h106.12v23.22h-106.12ZM1895.18,366.95v-22.41h98.56v22.41h-98.56ZM1895.18,451.47v-23.22h107.47v23.22h-107.47Z"/>
          <path d="M2037.21,451.47v-187.4h25.38v187.4h-25.38ZM2054.22,369.92v-21.33h50.77c10.98,0,19.4-2.79,25.25-8.37,5.85-5.58,8.78-13.14,8.78-22.68,0-9-2.93-16.47-8.78-22.41-5.85-5.94-14.18-8.91-24.98-8.91h-51.04v-22.14h51.85c11.88,0,22.23,2.3,31.05,6.89,8.82,4.59,15.61,10.85,20.39,18.77,4.77,7.92,7.16,17.01,7.16,27.27s-2.39,19.89-7.16,27.81c-4.77,7.92-11.57,14.09-20.39,18.5-8.82,4.41-19.17,6.62-31.05,6.62h-51.85ZM2145.22,451.47l-68.05-83.98,24.03-8.37,76.15,92.35h-32.13Z"/>
          <path d="M2200.04,244.9l-11.07-11.07,35.1-43.47,19.17,19.17-43.2,35.37ZM2203.55,451.47v-187.4h25.38v187.4h-25.38Z"/>
          <path d="M2259.17,451.47l76.96-187.4h18.36l76.42,187.4h-27.54l-63.19-158.51h9.72l-63.46,158.51h-27.27ZM2295.89,409.07v-22.14h98.56v22.14h-98.56Z"/>
          <path d="M2561.33,454.17c-14.58,0-27.1-2.7-37.53-8.1-10.44-5.4-19.71-13.23-27.81-23.49l17.28-17.28c5.94,8.28,12.78,14.54,20.52,18.77,7.74,4.23,17.28,6.35,28.62,6.35s20.12-2.43,26.87-7.29c6.75-4.86,10.13-11.52,10.13-19.98,0-7.02-1.67-12.69-5-17.01-3.33-4.32-7.7-7.87-13.1-10.67-5.4-2.79-11.34-5.27-17.82-7.43-6.48-2.16-12.96-4.54-19.44-7.16-6.48-2.61-12.47-5.89-17.96-9.86-5.49-3.96-9.86-9.05-13.1-15.26-3.24-6.21-4.86-14.18-4.86-23.9,0-10.62,2.57-19.67,7.7-27.14,5.13-7.47,12.15-13.23,21.06-17.28,8.91-4.05,18.94-6.08,30.11-6.08,12.24,0,23.22,2.39,32.94,7.16,9.72,4.77,17.64,11.03,23.76,18.77l-17.28,17.28c-5.58-6.48-11.57-11.34-17.96-14.58-6.39-3.24-13.73-4.86-22.01-4.86-10.08,0-18.09,2.21-24.03,6.62-5.94,4.41-8.91,10.58-8.91,18.5,0,6.3,1.66,11.39,5,15.26,3.33,3.87,7.7,7.16,13.1,9.86s11.38,5.18,17.96,7.43c6.57,2.25,13.1,4.73,19.58,7.43,6.48,2.7,12.42,6.12,17.82,10.26,5.4,4.14,9.76,9.5,13.1,16.07,3.33,6.57,5,14.81,5,24.71,0,16.56-5.72,29.53-17.15,38.88-11.43,9.36-26.96,14.04-46.58,14.04Z"/>
          <path d="M2733.06,454.17c-13.86,0-26.29-3.15-37.26-9.45-10.98-6.3-19.67-14.89-26.06-25.79-6.39-10.89-9.59-23.18-9.59-36.86v-118h25.65v117.46c0,9.9,2.07,18.45,6.21,25.65,4.14,7.2,9.76,12.78,16.88,16.74,7.11,3.96,15.16,5.94,24.17,5.94s16.97-1.98,23.9-5.94c6.93-3.96,12.42-9.54,16.47-16.74,4.05-7.2,6.08-15.66,6.08-25.38v-117.73h25.65v118.27c0,13.68-3.15,25.92-9.45,36.72-6.3,10.8-14.85,19.35-25.65,25.65-10.8,6.3-23.13,9.45-36.99,9.45Z"/>
          <path d="M2847.01,451.47v-187.4h25.38v187.4h-25.38Z"/>
          <path d="M2904.8,433.92l105.85-152.3h29.97l-105.85,152.3h-29.97ZM2904.8,451.47v-17.55l21.87-5.67h112.06v23.22h-133.93ZM2910.47,287.29v-23.22h130.15v17.55l-22.14,5.67h-108.01Z"/>
          <path d="M3052.5,451.47l76.96-187.4h18.36l76.42,187.4h-27.54l-63.19-158.51h9.72l-63.46,158.51h-27.27ZM3089.22,409.07v-22.14h98.56v22.14h-98.56Z"/>
        </g>
        <g>
          <path d="M1866.37,609.43v-105.66h14.31v105.66h-14.31ZM1876.12,561.32v-13.09h61.81v13.09h-61.81ZM1934.58,609.43v-105.66h14.31v105.66h-14.31Z"/>
          <path d="M1973.86,609.43v-105.66h14.31v105.66h-14.31ZM1983.6,516.87v-13.09h59.83v13.09h-59.83ZM1983.6,561.78v-12.64h55.57v12.64h-55.57ZM1983.6,609.43v-13.09h60.59v13.09h-60.59Z"/>
          <path d="M2109.35,610.96c-7.61,0-14.67-1.4-21.16-4.19-6.5-2.79-12.16-6.67-16.98-11.65-4.82-4.97-8.55-10.76-11.19-17.36-2.64-6.6-3.96-13.65-3.96-21.16s1.32-14.72,3.96-21.31c2.64-6.6,6.34-12.36,11.11-17.28,4.77-4.92,10.4-8.78,16.9-11.57,6.49-2.79,13.5-4.19,21.01-4.19,8.42,0,15.78,1.42,22.08,4.26,6.29,2.84,11.88,6.7,16.75,11.57l-9.9,9.9c-3.35-3.75-7.46-6.7-12.33-8.83-4.87-2.13-10.41-3.2-16.59-3.2-5.48,0-10.56.99-15.22,2.97-4.67,1.98-8.73,4.8-12.18,8.45-3.45,3.65-6.12,7.97-7.99,12.94-1.88,4.97-2.82,10.41-2.82,16.29s.94,11.32,2.82,16.29c1.88,4.97,4.54,9.29,7.99,12.94,3.45,3.65,7.51,6.47,12.18,8.45,4.67,1.98,9.79,2.97,15.38,2.97,6.6,0,12.33-1.09,17.2-3.27,4.87-2.18,8.98-5.15,12.33-8.91l9.9,9.9c-4.87,4.97-10.58,8.88-17.13,11.72-6.55,2.84-13.93,4.26-22.15,4.26Z"/>
          <path d="M2166.14,609.43v-105.66h14.31v105.66h-14.31ZM2175.88,561.32v-13.09h61.81v13.09h-61.81ZM2234.35,609.43v-105.66h14.31v105.66h-14.31Z"/>
          <path d="M2321.73,610.96c-7.51,0-14.52-1.4-21.01-4.19-6.5-2.79-12.18-6.7-17.05-11.72-4.87-5.02-8.68-10.83-11.42-17.43-2.74-6.6-4.11-13.65-4.11-21.16s1.37-14.69,4.11-21.24c2.74-6.55,6.52-12.31,11.34-17.28,4.82-4.97,10.45-8.83,16.9-11.57,6.44-2.74,13.42-4.11,20.93-4.11s14.49,1.37,20.93,4.11c6.44,2.74,12.1,6.6,16.98,11.57,4.87,4.97,8.68,10.76,11.42,17.36,2.74,6.6,4.11,13.7,4.11,21.31s-1.37,14.57-4.11,21.16c-2.74,6.6-6.52,12.38-11.34,17.36-4.82,4.97-10.46,8.86-16.9,11.65-6.45,2.79-13.37,4.19-20.78,4.19ZM2321.43,597.25c7.51,0,14.16-1.75,19.94-5.25,5.79-3.5,10.33-8.32,13.63-14.46,3.3-6.14,4.95-13.17,4.95-21.09,0-5.89-.94-11.29-2.82-16.21-1.88-4.92-4.54-9.21-7.99-12.86-3.45-3.65-7.51-6.47-12.18-8.45-4.67-1.98-9.85-2.97-15.53-2.97-7.51,0-14.14,1.73-19.87,5.18-5.74,3.45-10.25,8.22-13.55,14.31-3.3,6.09-4.95,13.09-4.95,21.01,0,5.89.94,11.34,2.82,16.37,1.88,5.02,4.52,9.34,7.92,12.94,3.4,3.6,7.46,6.42,12.18,8.45,4.72,2.03,9.87,3.04,15.45,3.04Z"/>
          <path d="M2426.02,609.43v-105.66h14.31v105.66h-14.31ZM2435.76,516.87v-13.09h59.83v13.09h-59.83ZM2435.76,561.78v-12.64h55.57v12.64h-55.57ZM2435.76,609.43v-13.09h60.59v13.09h-60.59Z"/>
          <path d="M2515.84,609.43v-105.66h10.05l4.26,16.75v88.91h-14.31ZM2588.92,609.43l-64.86-86.48,1.83-19.18,65.01,86.48-1.98,19.18ZM2588.92,609.43l-4.26-15.68v-89.98h14.31v105.66h-10.05Z"/>
          <path d="M2655.45,609.43v-105.66h10.05l44.76,73.53h-6.85l44.76-73.53h10.05v105.66h-14.31v-80.54l3.2.91-35.17,58.01h-10.2l-35.17-58.01,3.2-.91v80.54h-14.31Z"/>
          <path d="M2783.18,609.43v-105.66h14.31v105.66h-14.31ZM2792.93,516.87v-13.09h59.83v13.09h-59.83ZM2792.93,561.78v-12.64h55.57v12.64h-55.57ZM2792.93,609.43v-13.09h60.59v13.09h-60.59ZM2809.67,492.96l-6.24-6.24,19.79-24.51,10.81,10.81-24.36,19.94Z"/>
          <path d="M2865.09,609.43l40.95-56.18,9.74,8.53-34.56,47.65h-16.14ZM2944.26,609.43l-33.04-48.41h-2.59l-41.72-57.24h17.05l32.89,45.52h2.59l41.72,60.14h-16.9ZM2920.35,558.43l-9.59-8.53,32.43-46.13h16.29l-39.13,54.66Z"/>
          <path d="M2976.08,609.43v-105.66h14.31v105.66h-14.31Z"/>
          <path d="M3063.31,610.96c-7.61,0-14.67-1.4-21.16-4.19-6.5-2.79-12.16-6.67-16.98-11.65-4.82-4.97-8.55-10.76-11.19-17.36-2.64-6.6-3.96-13.65-3.96-21.16s1.32-14.72,3.96-21.31c2.64-6.6,6.34-12.36,11.11-17.28,4.77-4.92,10.4-8.78,16.9-11.57,6.49-2.79,13.5-4.19,21.01-4.19,8.42,0,15.78,1.42,22.08,4.26,6.29,2.84,11.88,6.7,16.75,11.57l-9.9,9.9c-3.35-3.75-7.46-6.7-12.33-8.83-4.87-2.13-10.41-3.2-16.59-3.2-5.48,0-10.56.99-15.22,2.97-4.67,1.98-8.73,4.8-12.18,8.45-3.45,3.65-6.12,7.97-7.99,12.94-1.88,4.97-2.82,10.41-2.82,16.29s.94,11.32,2.82,16.29c1.88,4.97,4.54,9.29,7.99,12.94,3.45,3.65,7.51,6.47,12.18,8.45,4.67,1.98,9.79,2.97,15.38,2.97,6.6,0,12.33-1.09,17.2-3.27,4.87-2.18,8.98-5.15,12.33-8.91l9.9,9.9c-4.87,4.97-10.58,8.88-17.13,11.72-6.55,2.84-13.93,4.26-22.15,4.26Z"/>
          <path d="M3163.95,610.96c-7.51,0-14.52-1.4-21.01-4.19-6.5-2.79-12.18-6.7-17.05-11.72-4.87-5.02-8.68-10.83-11.42-17.43-2.74-6.6-4.11-13.65-4.11-21.16s1.37-14.69,4.11-21.24c2.74-6.55,6.52-12.31,11.34-17.28,4.82-4.97,10.45-8.83,16.9-11.57,6.44-2.74,13.42-4.11,20.93-4.11s14.49,1.37,20.93,4.11c6.44,2.74,12.1,6.6,16.98,11.57,4.87,4.97,8.68,10.76,11.42,17.36,2.74,6.6,4.11,13.7,4.11,21.31s-1.37,14.57-4.11,21.16c-2.74,6.6-6.52,12.38-11.34,17.36-4.82,4.97-10.46,8.86-16.9,11.65-6.45,2.79-13.37,4.19-20.78,4.19ZM3163.64,597.25c7.51,0,14.16-1.75,19.94-5.25,5.79-3.5,10.33-8.32,13.63-14.46,3.3-6.14,4.95-13.17,4.95-21.09,0-5.89-.94-11.29-2.82-16.21-1.88-4.92-4.54-9.21-7.99-12.86-3.45-3.65-7.51-6.47-12.18-8.45-4.67-1.98-9.85-2.97-15.53-2.97-7.51,0-14.14,1.73-19.87,5.18-5.74,3.45-10.25,8.22-13.55,14.31-3.3,6.09-4.95,13.09-4.95,21.01,0,5.89.94,11.34,2.82,16.37,1.88,5.02,4.52,9.34,7.92,12.94,3.4,3.6,7.46,6.42,12.18,8.45,4.72,2.03,9.87,3.04,15.45,3.04Z"/>
        </g>
      </g>
    </g>
  </g>
</svg>